<svg xmlns="http://www.w3.org/2000/svg" xmlns:xlink="http://www.w3.org/1999/xlink" viewBox="0 0 2205.32 1923.68">
  <defs>
    <style>
      .cls-1 {
        isolation: isolate;
      }

      .cls-2, .cls-3 {
        opacity: 0.96;
      }

      .cls-2 {
        fill: url(#Dégradé_sans_nom_9);
      }

      .cls-3 {
        fill: url(#Dégradé_sans_nom_9-2);
      }

      .cls-4 {
        fill: #f9bbac;
      }

      .cls-5 {
        fill: none;
        stroke-width: 0.25px;
        mix-blend-mode: screen;
      }

      .cls-5, .cls-8, .cls-9 {
        stroke: #000;
        stroke-miterlimit: 10;
      }

      .cls-6 {
        fill: #fad4cc;
      }

      .cls-7 {
        fill: #dd796c;
      }

      .cls-9 {
        fill: #fff;
      }
    </style>
    <linearGradient id="Dégradé_sans_nom_9" data-name="Dégradé sans nom 9" x1="251.68" y1="1106" x2="2457" y2="1106" gradientUnits="userSpaceOnUse">
      <stop offset="0" stop-color="#f5f274"/>
      <stop offset="1" stop-color="#94eddc"/>
    </linearGradient>
    <linearGradient id="Dégradé_sans_nom_9-2" x1="258.85" y1="1197.58" x2="2449.84" y2="1197.58" xlink:href="#Dégradé_sans_nom_9"/>
  </defs>
  <title>phone</title>
  <g class="cls-1">
    <g id="Layer_1" data-name="Layer 1">
      <path class="cls-2" d="M509.43,1768.89l-7-8.19-8.59-10q-5-6.11-11.5-14.15c-4.38-5.33-8.95-11.53-14.16-18.21S457.66,1704,451.72,1696c-11.46-16.39-24.53-35.33-37.93-57.37A1129.6,1129.6,0,0,1,330,1472.48c-27-66.72-51.75-144.77-66.26-232.61-3.52-22-6.64-44.48-8.59-67.56-1.2-11.53-1.73-23.22-2.52-35-.36-11.8-1-23.7-.89-35.72-.21-12,.29-24.13.6-36.35.74-12.2,1.31-24.51,2.65-36.87a613.48,613.48,0,0,1,11.59-74.74c11.12-49.91,29-100.14,56.49-146.45a423.19,423.19,0,0,1,48.06-65.61,417.25,417.25,0,0,1,60.95-55.86,432.81,432.81,0,0,1,71.57-43.6,552,552,0,0,1,79-30.89A695,695,0,0,1,666,592.16c14.18-2,28.38-4.32,42.71-5.55l10.75-1.1,5.37-.56,5.39-.36,21.6-1.4c7.2-.59,14.43-.55,21.65-.82l10.85-.31,5.42-.15,1.36,0a4.53,4.53,0,0,1,1.16.07,4.25,4.25,0,0,0,.8.06h2.18c14.46.09,28.78,0,43.23-.22,28.86-.49,57.79-2,86.75-4,57.92-4.13,115.91-10.85,173.71-19,143.94-20.33,329.62-56.79,343.66-59.44,0,0,378.17-71.29,656.64-53.33,0,0,94.74,6.11,167.62,46.5,15.43,8.55,29.73,18.51,29.73,18.51a331.14,331.14,0,0,1,51.64,44.44,332.13,332.13,0,0,1,39.85,52,385.05,385.05,0,0,1,28.33,55.82c15.47,37.72,24.75,75.46,30.7,111.2,11.61,71.68,10.85,135.24,8.32,187-1.29,26-3.35,49.06-5.41,69.12-1,10-2,19.3-3.12,27.78s-2,16.19-3,23.07c-1.86,13.78-3.48,24.32-4.59,31.41s-1.65,10.77-1.65,10.77l-1.15-.17s.49-3.68,1.43-10.79,2.37-17.67,3.94-31.47c.86-6.89,1.65-14.6,2.53-23.09h0c1.17-12.54,2.26-22.12,2.66-27.77,2.5-35.75,3.74-53.63,4.26-69,.78-22.92-2.25-126-5.77-153.08-.78-5.95-5-32.61-5-32.61s-15.91-72.39-31.51-109.2c-11.43-27-30.54-69.16-67.49-104.5-36.56-35-80.16-52.7-127.44-63.86-311.06-73.43-769.64,12.15-769.64,12.15-183.75,34.29-237.14,43.13-344.34,57.86-58,8-116.19,14.49-174.38,18.41-29.1,1.92-58.18,3.29-87.2,3.67-14.49.22-29.07.21-43.46-.2l-3.3.09-.67,0-1.35,0-5.38.13-10.75.26c-7.17.25-14.34.18-21.48.74l-21.4,1.3-5.34.34-5.33.53-10.64,1.06c5.71,4,12.11,9.39,11,13.89-3.12,13.16-64.73-3.92-135.89,10C515,632,464.81,669.8,436,691.21A410.8,410.8,0,0,0,375.86,746a415.76,415.76,0,0,0-47.56,64.43c-27.26,45.55-45.13,95.09-56.4,144.45a607.32,607.32,0,0,0-11.85,74c-1.39,12.25-2,24.47-2.81,36.59-.37,12.13-.92,24.16-.77,36.11-.17,11.94.41,23.77.71,35.51.73,11.71,1.19,23.34,2.33,34.81,1.83,23,4.82,45.41,8.23,67.29,14,87.55,38.34,165.5,64.91,232.18a1127.31,1127.31,0,0,0,82.8,166.18c13.27,22.06,26.23,41,37.58,57.46,5.89,8.06,11.16,15.66,16.31,22.37s9.7,12.92,14,18.25c5.44,6.68,6.5,8,11.4,14.18C498.36,1754.31,503.43,1760.8,509.43,1768.89Z" transform="translate(-251.68 -253.95)"/>
      <path class="cls-3" d="M1821.82,2002.74q-32.77,10.1-65.39,19.7c-84,24.71-167.24,46.73-249.07,64.31-179.26,38.46-351.92,55.64-512.33,33.2-63.19-8.85-124.47-23.83-183.5-46.08A769.55,769.55,0,0,1,706,2024.72c-134.05-75.28-254.08-195.84-355.39-376.84-37.84-80.52-62.88-154.39-77.09-222.18-111.38-531,441.4-689.37,713.62-742.4,166.63-40.66,277.86-83.72,420.62-206.91,219.62-214.07,484.63-333.48,787-19.88C2697.41,1035.75,2396,1769.9,1821.82,2002.74Z" transform="translate(-251.68 -253.95)"/>
      <g>
        <path class="cls-4" d="M2193.09,2091.79l-403.61,67.35-38.46,7.19-59.72,11.17c-126.13-27.54-262.61-49.63-421.83-266.75-95.9-126.42-186-217.24-266.87-286.47-185.89-159.26-323-204.67-370-307-29-73.16-11.08-148.89,86.85-74.45l681.8-387.93L1406,841.7c4.17-10.75,9.63-18.24,15.51-23.2,13.6-11.54,29.48-9.68,37.42-4.09,28.87,46.32,60.59,89.57,93,129.73,121.1,149.75,252.57,256.37,284.12,319.39,74.44,139.25,136.47,343.26,165.42,502.48C2024.26,1838.88,2137,2007.17,2193.09,2091.79Z" transform="translate(-251.68 -253.95)"/>
        <path class="cls-5" d="M2193.09,2091.79l-403.61,67.35-38.46,7.19-59.72,11.17c-126.13-27.54-262.61-49.63-421.83-266.75-95.9-126.42-186-217.24-266.87-286.47-185.89-159.26-323-204.67-370-307-29-73.16-11.08-148.89,86.85-74.45l681.8-387.93L1406,841.7c4.17-10.75,9.63-18.24,15.51-23.2,13.6-11.54,29.48-9.68,37.42-4.09,28.87,46.32,60.59,89.57,93,129.73,121.1,149.75,252.57,256.37,284.12,319.39,74.44,139.25,136.47,343.26,165.42,502.48C2024.26,1838.88,2137,2007.17,2193.09,2091.79Z" transform="translate(-251.68 -253.95)"/>
      </g>
      <g>
        <path class="cls-4" d="M2262,2177.5H1752c49.88-363.11-91.67-570.71-20.66-851.93,43.54-150-335.69-388.75-290.89-497.65,15-9.73,10.53-19.1,18.47-13.51,28.87,46.32,60.59,89.57,93,129.73,82.85,57.47,252.57,256.37,284.12,319.39,74.44,139.25,136.47,343.26,165.42,502.48C2024.26,1838.88,2205.94,2092.89,2262,2177.5Z" transform="translate(-251.68 -253.95)"/>
        <path class="cls-5" d="M2262,2177.5H1752c49.88-363.11-91.67-570.71-20.66-851.93,43.54-150-335.69-388.75-290.89-497.65,15-9.73,10.53-19.1,18.47-13.51,28.87,46.32,60.59,89.57,93,129.73,82.85,57.47,252.57,256.37,284.12,319.39,74.44,139.25,136.47,343.26,165.42,502.48C2024.26,1838.88,2205.94,2092.89,2262,2177.5Z" transform="translate(-251.68 -253.95)"/>
      </g>
      <path class="cls-6" d="M1551.93,944.14c-35.81-8.77-77.79-43.92-130.47-125.64,13.6-11.54,29.48-9.68,37.42-4.09C1487.75,860.73,1519.47,904,1551.93,944.14Z" transform="translate(-251.68 -253.95)"/>
      <g>
        <path class="cls-4" d="M1789.48,2159.14,1752,2177.5H1691.3c-126.13-27.54-262.61-49.63-421.83-266.75-95.9-126.42-186-217.24-266.87-286.47l418.86-359.38c40.32,304.75,49.58,374.81,54.79,414.26-16.75,56.62-116.83,68.82-235.73,71,78.58,148.88,380.08,459.79,520,315Z" transform="translate(-251.68 -253.95)"/>
        <path class="cls-5" d="M1789.48,2159.14,1752,2177.5H1691.3c-126.13-27.54-262.61-49.63-421.83-266.75-95.9-126.42-186-217.24-266.87-286.47l418.86-359.38c40.32,304.75,49.58,374.81,54.79,414.26-16.75,56.62-116.83,68.82-235.73,71,78.58,148.88,380.08,459.79,520,315Z" transform="translate(-251.68 -253.95)"/>
      </g>
      <g>
        <path class="cls-4" d="M1368.09,877.07c17.26,156.21,97.4,235.73,150.48,297.26-46.21,41.8-16.66,163.34,57,366.37,15.23,42.79,18.63,143.9-1.93,177.46C1533,1800,1470.87,1669,1464.45,1606c-20.89,57.81-162.56,257.08-367.61,28.27-31.61-35.27,281.17-208,277.8-292.1Z" transform="translate(-251.68 -253.95)"/>
        <path class="cls-5" d="M1368.09,877.07c17.26,156.21,97.4,235.73,150.48,297.26-46.21,41.8-16.66,163.34,57,366.37,15.23,42.79,18.63,143.9-1.93,177.46C1533,1800,1470.87,1669,1464.45,1606c-20.89,57.81-162.56,257.08-367.61,28.27-31.61-35.27,281.17-208,277.8-292.1Z" transform="translate(-251.68 -253.95)"/>
      </g>
      <g>
        <path class="cls-7" d="M1706.45,1339.5l-6.85-1-6.83-1.19-6.8-1.36-6.77-1.52-6.72-1.71c-2.22-.63-4.46-1.23-6.67-1.88s-4.43-1.35-6.62-2.08-4.39-1.46-6.56-2.28c-4.34-1.6-8.64-3.3-12.87-5.18-2.11-1-4.24-1.87-6.3-2.91s-4.17-2-6.2-3.13l-3.07-1.62-3-1.73-3-1.73-3-1.84c-1-.62-2-1.21-2.94-1.85l-2.88-1.94c-2-1.26-3.8-2.65-5.68-4-3.74-2.73-7.35-5.64-10.87-8.66s-6.9-6.19-10.17-9.47c-1.66-1.62-3.21-3.35-4.82-5s-3.07-3.46-4.62-5.19-3-3.58-4.42-5.36-2.82-3.69-4.23-5.52c-2.75-3.74-5.39-7.55-7.88-11.46-1.3-1.92-2.45-3.93-3.66-5.91s-2.35-4-3.47-6l-1.69-3-1.6-3.09c-1.06-2.06-2.15-4.11-3.12-6.21s-2-4.17-3-6.3l-2.79-6.36.13.22c-5.37-6.67-10.77-13.32-16-20.1l-4-5.06-3.89-5.12c-2.58-3.42-5.2-6.8-7.74-10.25l-7.62-10.35c-2.53-3.46-5-7-7.49-10.45l-3.72-5.24-3.65-5.29c-2.42-3.54-4.92-7-7.27-10.6l-7.14-10.69-7-10.81c-2.35-3.59-4.56-7.26-6.82-10.9l-3.38-5.47c-1.12-1.83-2.18-3.69-3.28-5.53-2.16-3.71-4.4-7.37-6.49-11.11l-6.27-11.24-6-11.4c-2-3.81-3.8-7.7-5.71-11.55l-1.41-2.89-1.32-2.94-2.62-5.89c-1.81-3.9-3.29-8-4.91-11.93l-1.2-3c-.4-1-.72-2-1.08-3l-2.12-6.1c-.35-1-.71-2-1-3.11l-.87-3.08-1.74-6.18c-.61-2-1.11-4.15-1.61-6.24l-1.53-6.28c-.54-2.08-1-4.19-1.38-6.3l-1.31-6.31c-.83-4.21-1.48-8.46-2.23-12.69s-1.18-8.51-1.72-12.77l-.64-6.42c-.21-2.13-.46-4.27-.56-6.42-.23-4.29-.58-8.57-.61-12.87l-.14-6.44.11-6.44c0-4.3.37-8.58.57-12.87.15-2.14.4-4.28.6-6.42s.4-4.27.76-6.39l.95-6.37,1.24-6.32a139.61,139.61,0,0,1,7.47-24.6l.28.12a139.09,139.09,0,0,0-6.77,24.67l-1.07,6.31-.77,6.35c-.12,1.06-.28,2.12-.37,3.18l-.25,3.19c-.16,2.13-.38,4.25-.48,6.38-.13,4.27-.43,8.52-.34,12.79V911l.26,6.39c.33,8.52,1.18,17,2.15,25.49q.87,6.33,1.85,12.65c.78,4.19,1.47,8.4,2.34,12.58l1.36,6.25c.46,2.08.88,4.17,1.44,6.22l1.57,6.19c.51,2.06,1,4.12,1.66,6.17l1.79,6.17.88,3.09c.29.93.69,2,1,3l2.11,6c.36,1,.68,2,1.08,3l1.19,3c3.08,7.94,6.59,15.71,10.22,23.43,1.88,3.83,3.66,7.7,5.62,11.5l5.9,11.36,6.19,11.22c2,3.75,4.25,7.4,6.38,11.11,1.08,1.84,2.12,3.71,3.23,5.53l3.33,5.48c2.22,3.65,4.4,7.33,6.72,10.92l6.87,10.83,7,10.71c2.32,3.59,4.79,7.08,7.18,10.63l3.61,5.3,3.69,5.24c2.47,3.49,4.9,7,7.41,10.47l7.55,10.38c2.52,3.45,5.12,6.85,7.67,10.28l3.86,5.12,3.92,5.08c5.19,6.8,10.54,13.47,15.87,20.16l.08.1.06.13,2.73,6.34c.91,2.11,1.94,4.17,2.9,6.26s2,4.14,3.06,6.19l1.57,3.07,1.66,3c1.1,2,2.21,4,3.41,6s2.32,4,3.6,5.89c2.45,3.89,5.05,7.69,7.75,11.41,1.4,1.83,2.72,3.72,4.17,5.5s2.85,3.62,4.35,5.36,3,3.5,4.55,5.19,3.1,3.39,4.74,5c3.23,3.28,6.56,6.45,10,9.48s7,5.94,10.73,8.69c1.85,1.36,3.69,2.75,5.61,4l2.85,2c1,.65,1.94,1.24,2.91,1.87l2.92,1.84,3,1.75,3,1.74,3,1.64c2,1.12,4.08,2.14,6.14,3.16s4.16,2,6.26,3c4.19,1.9,8.47,3.63,12.78,5.25,2.15.83,4.35,1.54,6.52,2.32s4.39,1.42,6.58,2.13,4.43,1.28,6.65,1.93l6.69,1.75,6.74,1.57,6.78,1.41,6.81,1.24,6.84,1.09Z" transform="translate(-251.68 -253.95)"/>
        <path class="cls-7" d="M1587.78,1606.85l-7.5-16.47c-2.42-5.22-5.2-11.64-8.45-19s-6.77-15.67-10.66-24.74c-1.93-4.54-3.85-9.31-5.89-14.23l-3.08-7.51-3.07-7.78c-2.08-5.26-4.25-10.65-6.3-16.23-1-2.78-2.1-5.59-3.17-8.43l-1.61-4.27c-.51-1.44-1-2.89-1.55-4.34-4.2-11.61-8.38-23.67-12.32-36q-1.47-4.63-3-9.31c-1-3.12-1.87-6.27-2.81-9.41s-1.91-6.29-2.75-9.47-1.73-6.35-2.59-9.53-1.67-6.38-2.47-9.58-1.62-6.38-2.35-9.58c-1.4-6.42-2.92-12.78-4.08-19.18-.3-1.59-.61-3.18-.92-4.77l-.46-2.38-.38-2.39q-.78-4.77-1.53-9.48c-.47-3.16-.82-6.31-1.23-9.42-.19-1.57-.42-3.11-.57-4.67s-.28-3.11-.42-4.65a237,237,0,0,1-.79-35.73,169.91,169.91,0,0,1,4.68-31.73,105.19,105.19,0,0,1,9.87-25.24l1.43-2.63c.48-.84,1-1.63,1.55-2.43,1-1.57,2-3.14,3-4.54a88.13,88.13,0,0,1,6.13-7.39l2.81-3,2.68-2.43,2.31-2.08c.73-.61,1.44-1.11,2.05-1.58l3.79-2.85.18.24-3.63,3c-.59.49-1.27,1-2,1.65l-2.21,2.16L1528,1222l-2.66,3.07a86.37,86.37,0,0,0-5.76,7.5c-1,1.41-1.86,3-2.86,4.55-.47.8-1,1.58-1.45,2.43s-.88,1.73-1.33,2.61a107.48,107.48,0,0,0-9.08,25,167.32,167.32,0,0,0-4.11,31.29c-.07,2.81-.23,5.65-.21,8.53s0,5.8.08,8.75c.28,5.9.51,11.93,1.15,18l.39,4.61c.14,1.54.36,3.08.54,4.63.38,3.09.71,6.22,1.16,9.35s1,6.27,1.44,9.43l.36,2.38.43,2.37c.28,1.58.57,3.16.86,4.75,1.08,6.37,2.52,12.72,3.85,19.12.7,3.2,1.49,6.37,2.24,9.57s1.49,6.39,2.35,9.56,1.67,6.35,2.51,9.52,1.78,6.32,2.66,9.47,1.78,6.29,2.71,9.41,1.92,6.21,2.87,9.3c3.82,12.37,7.9,24.43,12,36.06.5,1.46,1,2.91,1.51,4.35s1,2.86,1.57,4.28l3.09,8.45c2,5.58,4.13,11,6.13,16.27q1.51,4,3,7.81l3,7.53c2,4.94,3.84,9.73,5.72,14.29,3.79,9.11,7.17,17.5,10.37,24.85s5.87,13.81,8.23,19.06l7.31,16.55Z" transform="translate(-251.68 -253.95)"/>
        <path class="cls-7" d="M1491.27,1659.22s-1.78-5.23-4.91-14.39c-1.58-4.57-3.33-10.18-5.43-16.58-1.07-3.2-2.07-6.64-3.19-10.25s-2.33-7.4-3.45-11.4-2.34-8.13-3.58-12.43l-3.59-13.38c-1.23-4.59-2.34-9.35-3.55-14.2s-2.23-9.84-3.39-14.9-2.09-10.25-3.16-15.48q-.7-3.95-1.41-7.94c-.46-2.66-1-5.33-1.36-8-.82-5.39-1.7-10.81-2.32-16.3-.33-2.74-.73-5.47-1-8.23s-.53-5.52-.8-8.27-.42-5.53-.63-8.29-.42-5.53-.48-8.29l-.3-8.27q0-4.12,0-8.23a261.71,261.71,0,0,1,2.08-32,195.14,195.14,0,0,1,6.34-29.4,147.55,147.55,0,0,1,10-25l1.41-2.76c.46-.91,1-1.77,1.5-2.64,1-1.71,2-3.43,3-5l3.1-4.62.75-1.12.8-1,1.56-2.06c2-2.76,4.11-5.11,6-7.35.92-1.14,2-2.11,2.87-3.08l2.68-2.75c3.53-3.33,6.34-5.91,8.41-7.48l3.1-2.5.19.23-2.94,2.67c-2,1.68-4.67,4.35-8,7.82a137.63,137.63,0,0,0-10.93,13.45c-.48.69-1,1.38-1.47,2.08l-.76,1.07-.7,1.12c-.94,1.51-1.9,3.06-2.9,4.65s-1.84,3.32-2.8,5c-.46.87-1,1.72-1.42,2.62s-.88,1.82-1.32,2.75a144.37,144.37,0,0,0-9.42,24.77,211.44,211.44,0,0,0-6,29,277.25,277.25,0,0,0-2.34,31.67c0,2.71,0,5.43-.08,8.15s.13,5.47.2,8.21.23,5.49.37,8.23.25,5.51.52,8.25.48,5.49.71,8.23.61,5.47.9,8.21c.57,5.46,1.39,10.87,2.15,16.25.35,2.69.84,5.35,1.27,8s.89,5.3,1.33,7.92c1,5.23,1.94,10.41,3,15.47s2.09,10.06,3.24,14.9,2.21,9.61,3.37,14.21,2.3,9.08,3.41,13.41,2.31,8.47,3.4,12.47,2.25,7.79,3.29,11.42,2,7.08,3.05,10.29c2,6.42,3.68,12,5.2,16.64,3,9.2,4.72,14.45,4.72,14.45Z" transform="translate(-251.68 -253.95)"/>
        <path class="cls-7" d="M1268.4,1713.35l7.06-.22,3.72-.12,4.36-.28,5-.32c1.74-.15,3.57-.37,5.49-.56s3.9-.36,6-.69l6.33-1c2.18-.28,4.38-.83,6.64-1.27s4.58-.88,6.87-1.56,4.67-1.23,7-1.92l7.06-2.4c1.2-.37,2.35-.9,3.52-1.38l3.5-1.46c1.16-.52,2.37-.93,3.49-1.53l3.41-1.71,3.4-1.73a15,15,0,0,0,1.67-.92l1.63-1,3.25-2,1.62-1a14.66,14.66,0,0,0,1.58-1l6.11-4.24c.5-.36,1-.68,1.49-1.06L1370,1683l2.83-2.24c3.87-2.79,7.19-6,10.56-8.82l1.23-1.06,1.16-1.11c.77-.74,1.52-1.47,2.27-2.18l4.33-4.11,7.3-7.52,1.57-1.62,1.39-1.58,2.49-2.76c3-3.34,4.77-5.22,4.77-5.22l.24.19s-1.49,2.09-4.19,5.7l-2.23,3-1.29,1.68-1.46,1.75c-2,2.38-4.27,5.15-6.85,8s-5.53,5.89-8.77,8.94c-1.63,1.5-3.33,3-5.07,4.59s-3.62,3-5.52,4.55l-2.92,2.24-1.47,1.12c-.5.38-1,.7-1.55,1.06l-6.33,4.18a18.31,18.31,0,0,1-1.64,1l-1.68,1-3.37,1.89-1.69,1a18.65,18.65,0,0,1-1.72.89l-3.51,1.66-3.51,1.67c-1.16.59-2.39,1-3.58,1.47l-3.6,1.41c-1.19.47-2.37,1-3.6,1.32l-7.21,2.28c-2.41.65-4.81,1.2-7.16,1.79s-4.69,1-7,1.43-4.52.9-6.72,1.11l-6.41.8c-2.06.27-4.08.34-6,.51s-3.77.31-5.52.41l-5,.17-4.39.16H1268.4Z" transform="translate(-251.68 -253.95)"/>
        <path class="cls-7" d="M1476.36,1180.91l-2.79,3.68-3.21,4.23c-1.22,1.64-2.68,3.44-4.25,5.41s-3.26,4.14-5.13,6.34-3.86,4.53-5.94,6.91-4.31,4.76-6.61,7.17l-3.52,3.57-1.78,1.8-1.85,1.73-3.7,3.47-3.83,3.28c-1.24,1.12-2.56,2.13-3.88,3.11s-2.58,2-3.94,2.86-2.64,1.76-4,2.52-2.69,1.47-4,2.15-2.65,1.2-3.91,1.77-2.56.94-3.76,1.39a33.23,33.23,0,0,1-3.54,1l-1.65.44c-.53.13-1.07.21-1.58.3-1,.18-2,.38-2.86.5l-2.46.25c-.73.09-1.39.13-2,.15l-1.46.06-1.21,0,0-.3,1.18-.26c.77-.19,1.91-.33,3.32-.72l2.35-.6c.85-.21,1.75-.52,2.72-.81.48-.15,1-.28,1.49-.46l1.55-.57c1.06-.39,2.18-.77,3.3-1.3,2.29-.94,4.67-2.17,7.17-3.48,1.22-.73,2.47-1.47,3.76-2.21s2.52-1.65,3.83-2.49,2.58-1.76,3.89-2.68,2.64-1.84,3.91-2.88l3.89-3.06,3.77-3.27,1.89-1.65,1.81-1.72,3.61-3.42c2.35-2.3,4.58-4.65,6.79-6.89l6.15-6.66c2-2.11,3.71-4.2,5.38-6.08s3.2-3.61,4.49-5.2l3.39-4.08,3-3.55Z" transform="translate(-251.68 -253.95)"/>
        <path class="cls-7" d="M1565.25,1104.38l-2,2.53c-.61.82-1.48,1.73-2.43,2.81s-2.11,2.22-3.37,3.46c-.62.64-1.31,1.25-2,1.87s-1.46,1.29-2.24,1.94c-1.61,1.23-3.29,2.58-5.16,3.78s-3.82,2.4-5.83,3.58-4.17,2.19-6.35,3.12l-1.62.73c-.55.24-1.1.44-1.65.66-1.1.42-2.19.88-3.29,1.27-2.21.74-4.39,1.49-6.54,2s-4.26,1-6.26,1.38-3.91.6-5.67.85-3.39.29-4.82.42-2.69.15-3.72.17c-2.07,0-3.24,0-3.24,0l0-.19s1.17-.22,3.19-.54c1-.18,2.25-.34,3.66-.6s3-.53,4.71-.87l2.67-.55c.93-.18,1.88-.37,2.85-.61s2-.47,3-.7,2.05-.53,3.1-.81c2.13-.48,4.28-1.18,6.48-1.81,1.09-.34,2.17-.74,3.27-1.11.55-.19,1.1-.37,1.65-.58l1.61-.66c2.18-.83,4.26-1.87,6.33-2.86s4-2.13,5.85-3.33,3.56-2.41,5.21-3.55c.8-.61,1.55-1.23,2.29-1.82s1.45-1.16,2.09-1.76c1.3-1.18,2.51-2.24,3.47-3.29s1.89-1.89,2.54-2.69l2.11-2.44Z" transform="translate(-251.68 -253.95)"/>
        <path class="cls-7" d="M1610.73,1167.1l-2.32,2.7c-.73.86-1.62,1.9-2.73,3l-1.73,1.83-.94,1-1,1c-1.42,1.33-2.91,2.83-4.64,4.24-.85.72-1.72,1.48-2.63,2.21l-2.89,2.15c-1,.76-2,1.43-3.06,2.11s-2.1,1.42-3.24,2l-3.39,1.88c-1.16.6-2.37,1.1-3.56,1.66a64.63,64.63,0,0,1-7.34,2.69c-1.25.33-2.49.71-3.73,1l-3.71.62-.91.13-.92.05-1.8.1a21.36,21.36,0,0,1-3.48,0l-3.29-.18c-1.06-.09-2.07-.32-3-.46s-1.91-.3-2.78-.52l-2.45-.69-2.14-.61c-.65-.24-1.23-.49-1.76-.7-2.12-.85-3.3-1.37-3.3-1.37l.07-.18s1.27.3,3.44.88l1.8.47,2.16.39,2.44.46c.86.14,1.78.16,2.73.28s1.94.24,3,.26l3.18,0a29.34,29.34,0,0,0,3.35-.14l1.73-.11.87-.06.88-.15,3.58-.52c1.2-.24,2.4-.55,3.62-.82a33.41,33.41,0,0,0,3.63-1.06,30.77,30.77,0,0,0,3.59-1.3c1.17-.51,2.37-1,3.52-1.51l3.38-1.75c1.13-.55,2.16-1.27,3.23-1.89s2.11-1.27,3.08-2l2.9-2c.93-.7,1.8-1.43,2.68-2.1,1.77-1.33,3.3-2.76,4.76-4,.36-.32.71-.64,1.06-.94l1-1,1.79-1.74c1.14-1.08,2.08-2.1,2.84-2.93l2.43-2.6Z" transform="translate(-251.68 -253.95)"/>
      </g>
      <g>
        <rect class="cls-8" x="452.46" y="0.5" width="698.21" height="1435.05" rx="104.04"/>
        <path class="cls-9" d="M1316.65,1659.17H792.2A56.39,56.39,0,0,1,736,1603V343.81a56.39,56.39,0,0,1,56.22-56.22h89l3.44,4.86a70.94,70.94,0,0,0,58.4,30l213-1.55a70.93,70.93,0,0,0,59.64-33.29h100.94a56.38,56.38,0,0,1,56.21,56.22V1603A56.38,56.38,0,0,1,1316.65,1659.17Z" transform="translate(-251.68 -253.95)"/>
      </g>
    </g>
  </g>
</svg>
